<?xml version="1.0" encoding="utf-8"?>
<svg version="1.1" xmlns="http://www.w3.org/2000/svg" xmlns:xlink="http://www.w3.org/1999/xlink" x="0px" y="0px"
	 viewBox="0 0 88 88"  xml:space="preserve">
<path d="M45.82,5.34c-22.55,0-40.83,18.28-40.83,40.84c0,18.04,11.7,33.35,27.93,38.75c2.04,0.37,2.79-0.89,2.79-1.97
	c0-0.97-0.04-3.54-0.06-6.95c-11.36,2.47-13.76-5.47-13.76-5.47c-1.86-4.72-4.53-5.97-4.53-5.97c-3.71-2.53,0.28-2.48,0.28-2.48
	c4.1,0.29,6.26,4.21,6.26,4.21c3.64,6.24,9.56,4.44,11.88,3.39c0.37-2.64,1.43-4.44,2.59-5.46c-9.07-1.03-18.6-4.53-18.6-20.18
	c0-4.46,1.59-8.1,4.2-10.96c-0.42-1.03-1.82-5.19,0.4-10.81c0,0,3.43-1.1,11.23,4.19c3.26-0.91,6.75-1.36,10.22-1.37
	c3.47,0.02,6.96,0.47,10.22,1.37c7.8-5.28,11.22-4.19,11.22-4.19c2.23,5.62,0.83,9.77,0.41,10.81c2.62,2.85,4.2,6.5,4.2,10.96
	c0,15.69-9.55,19.14-18.65,20.15c1.47,1.26,2.77,3.75,2.77,7.56c0,5.46-0.05,9.86-0.05,11.2c0,1.09,0.74,2.36,2.81,1.96
	c16.21-5.41,27.9-20.71,27.9-38.74C86.66,23.63,68.38,5.34,45.82,5.34z"/>
</svg>
